<?xml version="1.0" standalone="no"?>
<!DOCTYPE svg PUBLIC "-//W3C//DTD SVG 20010904//EN"
 "http://www.w3.org/TR/2001/REC-SVG-20010904/DTD/svg10.dtd">
<svg version="1.0" xmlns="http://www.w3.org/2000/svg"
 width="980.000000pt" height="980.000000pt" viewBox="0 0 980.000000 980.000000"
 preserveAspectRatio="xMidYMid meet">
<metadata>
Created by potrace 1.14, written by Peter Selinger 2001-2017
</metadata>
<g transform="translate(0.000000,980.000000) scale(0.100000,-0.100000)"
fill="#000000" stroke="none">
<path d="M3093 6238 c-9 -12 -28 -45 -115 -196 -14 -26 -33 -60 -41 -77 -8
-16 -31 -55 -51 -85 -59 -88 -59 -88 15 -177 5 -7 8 -13 5 -13 -2 0 8 -13 23
-29 15 -16 58 -72 96 -125 39 -52 75 -95 80 -95 9 0 50 53 223 290 l44 59 -42
75 c-22 42 -38 80 -35 86 4 5 1 8 -5 7 -6 -2 -47 60 -91 137 -44 77 -84 144
-88 148 -4 4 -12 2 -18 -5z"/>
<path d="M3347 6244 c-3 -3 8 -29 25 -57 158 -269 258 -450 252 -459 -4 -6 -3
-8 2 -5 13 8 77 -100 68 -115 -4 -7 -3 -8 4 -4 13 8 56 -70 47 -85 -4 -5 -2
-8 4 -7 8 3 185 -289 300 -497 31 -55 715 -1241 790 -1369 26 -44 51 -81 56
-83 6 -1 17 9 26 25 329 571 413 711 421 705 7 -3 8 -1 4 6 -4 7 21 61 60 129
37 64 138 239 224 387 86 149 269 466 407 705 138 239 288 498 332 575 45 77
81 143 81 147 0 5 -130 8 -288 8 l-288 0 -38 -70 c-22 -42 -42 -68 -48 -64 -7
4 -8 2 -4 -4 8 -14 -311 -568 -325 -564 -6 1 -8 -2 -4 -8 9 -14 -36 -91 -48
-83 -6 3 -7 1 -3 -5 3 -6 -26 -66 -65 -134 -40 -67 -81 -138 -91 -158 -85
-153 -163 -278 -171 -273 -6 3 -7 1 -3 -5 6 -10 -140 -279 -169 -310 -9 -10
-27 14 -88 120 -42 73 -76 137 -76 142 0 5 -4 12 -9 15 -5 3 -43 65 -84 136
-41 72 -125 217 -187 323 -62 106 -109 197 -105 204 4 6 3 8 -3 5 -5 -3 -29
29 -53 71 -24 42 -79 137 -122 211 -43 73 -75 138 -71 145 3 6 2 8 -2 3 -11
-10 -98 140 -89 155 4 6 3 8 -4 4 -6 -4 -27 24 -52 69 l-41 75 -283 0 c-155 0
-285 -3 -289 -6z"/>
<path d="M4166 6242 c-3 -5 10 -34 29 -65 19 -31 31 -57 27 -57 -4 0 -2 -4 4
-8 7 -4 40 -56 74 -117 66 -116 131 -229 223 -385 30 -52 64 -111 75 -130 112
-202 296 -509 302 -505 7 4 78 122 115 190 6 11 79 137 162 280 82 143 168
291 189 328 21 38 51 90 67 115 15 26 39 68 52 94 43 82 82 138 90 130 5 -4 5
-1 1 6 -5 8 3 26 18 46 14 18 28 45 32 60 l6 26 -730 0 c-402 0 -733 -4 -736
-8z"/>
<path d="M6440 5823 c-135 -234 -260 -453 -279 -487 -19 -33 -49 -85 -67 -114
-19 -29 -34 -54 -34 -57 0 -3 -30 -55 -66 -117 -101 -172 -167 -287 -203 -351
-19 -33 -37 -54 -43 -51 -7 4 -8 2 -4 -4 10 -16 -32 -94 -46 -86 -7 4 -8 3 -4
-4 7 -11 -197 -375 -206 -367 -3 3 -5 -1 -5 -8 0 -7 -77 -147 -173 -312 -95
-165 -175 -303 -177 -307 -2 -5 696 -8 1551 -8 899 0 1556 4 1556 9 0 5 -63
117 -139 250 l-139 242 -981 -1 c-540 0 -980 3 -978 8 2 4 35 60 72 125 l67
117 834 -2 c568 -2 834 0 834 7 0 6 -52 100 -116 210 -64 110 -127 219 -140
242 l-25 43 -548 2 -547 3 90 156 c50 86 95 154 100 151 5 -3 6 0 3 6 -7 10
51 122 63 122 3 0 30 -44 60 -98 l56 -97 287 -3 c170 -1 287 1 287 7 0 9 -23
49 -270 476 -138 239 -346 599 -387 672 -14 24 -28 45 -31 47 -4 2 -117 -188
-252 -421z"/>
<path d="M2648 5463 c-41 -70 -99 -171 -128 -223 -29 -52 -60 -103 -68 -112
-17 -20 -35 8 215 -326 l183 -243 0 -500 0 -499 255 0 255 0 0 496 c0 486 0
497 21 530 11 19 26 31 31 28 6 -4 8 -3 5 3 -4 6 72 115 168 243 96 129 175
239 175 247 0 7 -60 116 -132 242 -94 162 -138 229 -150 228 -9 -1 -16 -4 -15
-8 1 -4 -74 -109 -168 -234 -93 -126 -175 -234 -180 -242 -10 -13 -35 15 -125
141 -14 20 -260 348 -265 354 -1 2 -36 -55 -77 -125z"/>
<path d="M2294 4853 c-37 -66 -128 -222 -184 -318 -26 -44 -64 -111 -86 -148
-21 -38 -49 -85 -61 -105 -12 -21 -28 -48 -35 -62 -13 -26 -76 -133 -115 -198
-12 -21 -26 -44 -30 -52 -4 -8 -20 -35 -34 -60 -100 -171 -189 -331 -189 -340
0 -7 172 -9 538 -8 l537 3 -1 470 c-1 458 -2 500 -12 490 -5 -4 -59 60 -108
131 -55 77 -174 233 -183 239 -6 3 -22 -16 -37 -42z"/>
<path d="M3830 4838 c-25 -34 -72 -98 -105 -142 -33 -45 -67 -90 -75 -102 -8
-12 -29 -40 -47 -63 l-32 -43 2 -461 2 -462 538 -3 c381 -1 537 1 537 9 0 6
-24 52 -54 102 -29 51 -97 169 -151 262 -54 94 -117 203 -141 243 -24 40 -44
75 -44 77 0 3 -18 34 -40 69 -21 36 -51 86 -64 113 -14 26 -37 66 -51 88 -14
22 -32 54 -40 70 -8 17 -27 51 -42 76 -16 25 -52 87 -82 137 -29 51 -56 92
-60 92 -3 -1 -26 -28 -51 -62z"/>
</g>
</svg>
