<?xml version="1.0" encoding="utf-8"?>
<!-- Generator: Adobe Illustrator 23.0.1, SVG Export Plug-In . SVG Version: 6.00 Build 0)  -->
<svg version="1.1"
	 id="svg8" inkscape:version="0.92.2 (5c3e80d, 2017-08-06)" sodipodi:docname="Forza logo 2020.svg" xmlns:cc="http://creativecommons.org/ns#" xmlns:dc="http://purl.org/dc/elements/1.1/" xmlns:inkscape="http://www.inkscape.org/namespaces/inkscape" xmlns:rdf="http://www.w3.org/1999/02/22-rdf-syntax-ns#" xmlns:sodipodi="http://sodipodi.sourceforge.net/DTD/sodipodi-0.dtd" xmlns:svg="http://www.w3.org/2000/svg"
	 xmlns="http://www.w3.org/2000/svg" xmlns:xlink="http://www.w3.org/1999/xlink" x="0px" y="0px" width="1000px" height="609.6px"
	 viewBox="0 0 1000 609.6" enable-background="new 0 0 1000 609.6" xml:space="preserve">
<g>
	<path id="rect838" inkscape:connector-curvature="0" sodipodi:nodetypes="ccccc" d="M202,195.6L68.1,404.4l183.4-24.1l100.7-157
		L202,195.6z"/>
	<path id="rect841" inkscape:connector-curvature="0" d="M423.5,0C355.2,0,305.1,35.6,277,79.6l-24.8,38.7h506.9
		c68.2,0,116.2-35.6,144.4-79.6L928.3,0H423.5z"/>
	<path id="rect862" inkscape:connector-curvature="0" sodipodi:nodetypes="ccccc" d="M560.8,144.4l-95.8,149.4L572,279.9l86.9-135.5
		H560.8z"/>
	<path id="path865" inkscape:connector-curvature="0" sodipodi:nodetypes="ccsscc" d="M688.8,144.4L605,275.2l71.8-9.3
		c14-1.8,39.2-12,54.2-35.4l55.2-86H688.8z"/>
	<path id="path867" inkscape:connector-curvature="0" d="M101.4,144.4l-4.8,5.8l298.1,53.9l-68.9,107.7L432,298l98.5-153.6h-96.4
		L101.4,144.4z"/>
	<path id="rect884" inkscape:connector-curvature="0" d="M0,481.8v124.8h30.3v-39.1h85.6v-27.2H30.3v-31.8h89.9l17-26.7H0z"/>
	<path id="path895" inkscape:connector-curvature="0" d="M651.3,481.8l-17,27h79l-79.4,98.1h135.5v-27h-77l79.4-98.1H651.3z"/>
	<path id="rect913" inkscape:connector-curvature="0" d="M897.5,481.8l-61.4,125.1h32.8l13.4-27.3h71.4l13.4,27.3h32.8l-61.4-125.1
		H897.5z M918,505.9l24.7,50.2h-49.3L918,505.9z"/>
	<path id="path921" inkscape:connector-curvature="0" d="M265.7,479.5c-57,0-75.8,29.1-75.8,65.1c0,35.9,18.8,65.1,75.8,65.1
		s75.8-29.1,75.8-65.1C341.6,508.6,322.7,479.5,265.7,479.5z M265.7,505.7c36.7,0,44.9,17.4,44.9,38.9c0,21.5-8.2,38.9-44.9,38.9
		s-44.9-17.4-44.9-38.9C220.8,523.1,229,505.7,265.7,505.7z"/>
	<path id="rect930" inkscape:connector-curvature="0" d="M417.2,481.8v124.8h30.3v-98.4l57.2,0.3c15.7,0.1,21.3,8.2,21.3,19.2
		c0,11-5.6,18.9-21.3,18.9h-51.9l70.6,60h41.3l-47.5-38.7l1.9,0c21.3-2.7,37.3-20.8,37.3-42.9c0-23.9-18.9-43.2-42.8-43.2H417.2z"/>
</g>
</svg>
